<svg width="82" height="70" viewBox="0 0 82 70" fill="none" xmlns="http://www.w3.org/2000/svg">
<path d="M66.6306 63.7364C66.6306 66.9849 54.2735 69.6178 39.0302 69.6178C23.7869 69.6178 11.4297 66.9849 11.4297 63.7364C11.4297 60.4881 23.7869 57.8549 39.0302 57.8549C54.2735 57.8549 66.6306 60.4881 66.6306 63.7364Z" fill="#1C1918"/>
<path d="M12.7518 37.9286C12.7518 37.9286 6.88592 33.5245 0.637567 32.592L0 38.7557L11.9867 39.6937C11.9867 39.6937 5.22831 41.9887 1.53022 47.2167L7.90604 50.4049L14.4095 41.4986L12.7518 37.9286Z" fill="#1C1918"/>
<path d="M50.7505 12.9539C51.6381 10.1782 49.0574 5.88998 44.5078 2.87506C39.4921 -0.448967 33.9831 -0.96656 32.2033 1.71936C31.5222 2.74691 31.4877 4.09503 31.9833 5.55371C29.4093 5.6505 27.4401 6.58509 26.9686 8.17594C26.5379 9.62908 27.4525 11.3041 29.2184 12.7144C18.9563 17.5906 11.4297 28.9686 11.4297 40.5004C11.4297 55.7653 24.6167 65.5162 39.8816 65.5162C55.1465 65.5162 66.595 55.7653 66.595 40.5004C66.595 29.1534 60.268 17.9552 50.7505 12.9539Z" fill="#5CB0D0"/>
<path d="M50.7505 12.9539C51.6381 10.1782 49.0574 5.88998 44.5078 2.87506C39.4921 -0.448966 33.9831 -0.966562 32.2033 1.71936C31.5222 2.7469 31.4877 4.09503 31.9833 5.55371C29.4093 5.6505 27.4401 6.58509 26.9686 8.17594C26.5379 9.62908 27.4525 11.3041 29.2184 12.7144C18.9563 17.5906 11.4297 28.9686 11.4297 40.5004C11.4297 55.7653 24.6167 65.5162 39.8816 65.5162C55.1465 65.5162 66.595 55.7653 66.595 40.5004C66.595 29.1534 60.268 17.9552 50.7505 12.9539Z" stroke="#1C1918" stroke-width="3" stroke-miterlimit="10"/>
<path d="M49.3839 32.1899C49.3839 37.4705 45.215 40.2855 39.9344 40.2855C34.6538 40.2855 30.373 36.0045 30.373 30.7243C30.373 25.4437 34.6538 22.2618 39.9344 22.2618C45.215 22.2618 49.3839 26.9095 49.3839 32.1899Z" fill="#1C1918"/>
<path d="M48.1717 32.0943C48.1717 36.8234 44.438 39.3445 39.7086 39.3445C34.9793 39.3445 31.1455 35.5107 31.1455 30.7815C31.1455 26.0522 34.9793 23.2027 39.7086 23.2027C44.438 23.2027 48.1717 27.3649 48.1717 32.0943Z" fill="white"/>
<path d="M65.598 31.6396C65.598 36.2814 61.9335 38.7557 57.292 38.7557C52.65 38.7557 48.8872 34.9929 48.8872 30.3512C48.8872 25.7092 52.65 22.9126 57.292 22.9126C61.9335 22.9126 65.598 26.9979 65.598 31.6396Z" fill="#1C1918"/>
<path d="M64.7259 31.5556C64.7259 35.7124 61.444 37.9286 57.2869 37.9286C53.1297 37.9286 49.7598 34.5587 49.7598 30.4014C49.7598 26.2442 53.1297 23.7392 57.2869 23.7392C61.444 23.7392 64.7259 27.3982 64.7259 31.5556Z" fill="white"/>
<path d="M31.036 33.6347C31.036 33.6347 38.5402 39.0725 47.9302 33.6347C47.9302 33.6347 60.6456 34.8962 65.5806 33.6347L65.7627 34.421L66.6309 42.5312L34.6412 43.7749C34.6412 43.7749 30.0346 41.3883 31.036 33.6347Z" fill="#D91E25"/>
<path d="M34.9381 37C34.9381 37 40.0639 38.2901 49.3428 34C49.3428 34 60.6234 35.9952 65.5 35L66.1421 36.6204L67 43.0188L35.3887 44C35.3887 44 31.1606 41.6171 32.1501 35.5L34.9381 37Z" fill="#1C1918" stroke="#1C1918" stroke-width="3" stroke-miterlimit="10"/>
<path d="M32.9409 42.1055C32.9409 42.1055 38.1123 50.5428 46.4648 55.0852C46.4648 55.0852 60.9486 50.0481 67.8472 43.7748L32.9409 42.1055Z" fill="#F7921A"/>
<path d="M32.9409 42.1055C32.9409 42.1055 38.1123 50.5428 46.4648 55.0852C46.4648 55.0852 60.9486 50.0481 67.8472 43.7748L32.9409 42.1055Z" stroke="#1C1918" stroke-width="3" stroke-miterlimit="10" stroke-linejoin="round"/>
<path d="M32.7474 42.697C45.8696 41.9797 79.5079 45.2953 79.5079 45.2953C63.9886 35.4194 49.9874 33.6346 49.9874 33.6346C39.1217 35.4546 32.3413 42.1602 32.3413 42.1602L32.7474 42.697Z" fill="#1C1918"/>
<path d="M32.7474 42.697C45.8696 41.9797 79.5079 45.2953 79.5079 45.2953C63.9886 35.4194 49.9874 33.6346 49.9874 33.6346C39.1217 35.4546 32.3413 42.1602 32.3413 42.1602L32.7474 42.697Z" stroke="#1C1918" stroke-width="3" stroke-miterlimit="10" stroke-linejoin="round"/>
<path d="M34.4183 41.9327C46.2215 41.2875 76.4774 44.2699 76.4774 44.2699C62.7294 36.1821 49.9252 33.781 49.9252 33.781C40.1519 35.4181 32.9409 42.1056 32.9409 42.1056L34.4183 41.9327Z" fill="#F9BA15"/>
<path d="M47.1974 30.321C47.1974 31.575 46.1804 32.592 44.926 32.592C43.6714 32.592 42.6548 31.575 42.6548 30.321C42.6548 29.0664 43.6714 28.0496 44.926 28.0496C46.1804 28.0496 47.1974 29.0664 47.1974 30.321Z" fill="#1C1918"/>
<path d="M63.9022 30.321C63.9022 31.575 62.885 32.592 61.6308 32.592C60.3762 32.592 59.3594 31.575 59.3594 30.321C59.3594 29.0664 60.3762 28.0496 61.6308 28.0496C62.885 28.0496 63.9022 29.0664 63.9022 30.321Z" fill="#1C1918"/>
<path d="M32.0714 4.4986C32.0714 4.4986 33.9841 12.9787 44.4407 13.0422C44.4407 13.0422 35.1576 13.8601 31.5742 5.57683" fill="#1C1918"/>
<path d="M28.644 13.4409C28.644 13.4409 29.7439 11.9235 36.0082 12.8736C36.0082 12.8736 33.5828 11.839 30.8935 12.3394C30.8935 12.3394 29.8126 12.7106 28.644 11.7672" fill="#1C1918"/>
</svg>
