<svg width="70" height="70" viewBox="0 0 70 70" fill="none" xmlns="http://www.w3.org/2000/svg">
<g clip-path="url(#clip0_32_12815)">
<path d="M59.7576 10.2875C56.5167 7.02078 52.6598 4.42947 48.4105 2.66361C44.1611 0.897747 39.6036 -0.00758004 35.002 4.78025e-05C30.3993 -0.00715336 25.8409 0.898341 21.5905 2.66415C17.3401 4.42996 13.4819 7.02103 10.2393 10.2875C-3.4131 23.9364 -3.4131 46.1535 10.2393 59.8058C13.482 63.0732 17.3406 65.6648 21.5918 67.4307C25.8429 69.1965 30.4022 70.1015 35.0055 70.0933C39.6069 70.1014 44.1642 69.1966 48.4136 67.4313C52.6629 65.6661 56.5199 63.0754 59.7612 59.8093C73.4135 46.1605 73.4135 23.9434 59.7576 10.2875ZM35.6322 7.03458H34.3752C34.5888 7.03108 34.7919 7.00307 35.0055 7.00307C35.2191 7.00307 35.4186 7.03108 35.6322 7.03458ZM56.8584 52.5542H49.0045L44.5996 61.364C41.5268 62.4992 38.2778 63.0836 35.002 63.0903C31.7201 63.0843 28.465 62.4987 25.3868 61.3605L20.9924 52.5892H13.1666C10.2793 48.9997 8.32681 44.7506 7.4836 40.2219L13.9894 31.5451L9.73157 23.026C11.0902 20.1358 12.9368 17.5014 15.1904 15.2386C18.3445 12.0735 22.2106 9.70942 26.4653 8.34415L34.9985 14.0376L43.5351 8.34765C47.7886 9.71389 51.6542 12.0764 54.81 15.2386C57.0612 17.4987 58.9065 20.1294 60.2654 23.0155L56.0075 31.5451L62.5133 40.2219C61.674 44.736 59.7314 48.9726 56.8584 52.5542Z" fill="#181818"/>
<path d="M15 30.2857L23.5714 53.1429H46.4286L55 30.2857L35 16L15 30.2857Z" fill="#181818"/>
</g>
<defs>
<clipPath id="clip0_32_12815">
<rect width="70" height="70" fill="white"/>
</clipPath>
</defs>
</svg>
