<svg width="52" height="46" viewBox="0 0 52 46" fill="none" xmlns="http://www.w3.org/2000/svg">
<path d="M50.082 9.61723C49.2966 7.7987 48.1642 6.15076 46.748 4.76567C45.3309 3.37644 43.6599 2.27245 41.8262 1.51371C39.9247 0.723829 37.8852 0.319521 35.8262 0.32426C32.9375 0.32426 30.1191 1.11528 27.6699 2.60942C27.084 2.96684 26.5273 3.35942 26 3.78715C25.4727 3.35942 24.916 2.96684 24.3301 2.60942C21.8809 1.11528 19.0625 0.32426 16.1738 0.32426C14.0938 0.32426 12.0781 0.722698 10.1738 1.51371C8.33398 2.27543 6.67578 3.37113 5.25195 4.76567C3.83396 6.1492 2.70124 7.79752 1.91797 9.61723C1.10352 11.5098 0.6875 13.5196 0.6875 15.5879C0.6875 17.5391 1.08594 19.5723 1.87695 21.6407C2.53906 23.3692 3.48828 25.1621 4.70117 26.9727C6.62305 29.8379 9.26562 32.8262 12.5469 35.8555C17.9844 40.877 23.3691 44.3457 23.5977 44.4864L24.9863 45.377C25.6016 45.7696 26.3926 45.7696 27.0078 45.377L28.3965 44.4864C28.625 44.3399 34.0039 40.877 39.4473 35.8555C42.7285 32.8262 45.3711 29.8379 47.293 26.9727C48.5059 25.1621 49.4609 23.3692 50.1172 21.6407C50.9082 19.5723 51.3066 17.5391 51.3066 15.5879C51.3125 13.5196 50.8965 11.5098 50.082 9.61723Z" fill="#ED111E"/>
</svg>
