<svg width="74" height="72" viewBox="0 0 74 72" fill="none" xmlns="http://www.w3.org/2000/svg">
<path d="M44.7927 10.5045C45.3567 9.8261 45.7588 8.99816 45.9185 8.06624C46.4012 5.23972 44.5008 2.55753 41.6748 2.07484C38.8483 1.59233 36.1663 3.49198 35.6834 6.31832C35.5029 7.37575 35.6561 8.41257 36.0663 9.32225C31.6409 9.49713 27.1518 10.8399 22.9463 13.0253C22.9524 12.9951 22.9595 12.9651 22.9647 12.9342C23.5494 9.51033 21.2472 6.26063 17.8239 5.67612C14.4 5.09161 11.1507 7.39312 10.5663 10.817C9.99435 14.1642 12.1818 17.3432 15.4791 18.0302C8.71364 23.6892 3.60622 31.4526 2.2603 39.3357C-0.561609 55.8612 20.1315 66.4352 36.6582 69.2576C53.1843 72.0797 68.8691 60.9708 71.6915 44.4443C74.2948 29.199 59.9981 14.8518 44.7927 10.5045Z" fill="#61C332"/>
<path d="M44.7927 10.5045C45.3567 9.8261 45.7588 8.99816 45.9185 8.06624C46.4012 5.23972 44.5008 2.55753 41.6748 2.07484C38.8483 1.59233 36.1663 3.49199 35.6834 6.31832C35.5029 7.37575 35.6561 8.41257 36.0663 9.32225C31.6409 9.49713 27.1518 10.8399 22.9463 13.0253C22.9524 12.9951 22.9595 12.9651 22.9647 12.9342C23.5494 9.51033 21.2472 6.26063 17.8239 5.67612C14.4 5.09161 11.1507 7.39311 10.5663 10.817C9.99435 14.1642 12.1818 17.3432 15.4791 18.0302C8.71364 23.6892 3.60622 31.4526 2.2603 39.3357C-0.561609 55.8613 20.1315 66.4352 36.6582 69.2576C53.1843 72.0797 68.8691 60.9708 71.6915 44.4443C74.2948 29.199 59.9981 14.8518 44.7927 10.5045V10.5045Z" stroke="#231F20" stroke-width="3" stroke-miterlimit="10"/>
<path d="M22.4415 40.5533C21.7553 44.5698 17.944 47.2694 13.9276 46.5838C9.91112 45.8976 7.13448 43.9832 7.82052 39.9665C8.5062 35.9503 12.1765 32.6322 16.1931 33.3182C20.2092 34.004 23.1271 36.5377 22.4415 40.5533Z" fill="#231F20"/>
<path d="M21.5605 39.9656C20.9659 43.4464 17.6627 45.7863 14.1818 45.1914C10.7009 44.5975 8.29409 42.9375 8.88864 39.457C9.48277 35.9762 12.664 33.1008 16.1449 33.6953C19.6258 34.2894 22.1546 36.4851 21.5605 39.9656Z" fill="white"/>
<path d="M19.6184 40.9046C19.4579 41.8439 18.5665 42.4752 17.6266 42.3145C16.6876 42.1544 16.0564 41.263 16.2168 40.3235C16.3772 39.3845 17.2686 38.7528 18.2076 38.9132C19.1475 39.0736 19.7787 39.9656 19.6184 40.9046Z" fill="#231F20"/>
<path d="M45.9914 52.0297C45.9637 53.9936 41.1283 56.3611 36.8348 56.3021C32.5419 56.2439 30.4175 53.7801 30.4446 51.8163C30.4717 49.8512 33.973 48.3067 38.2669 48.3657C42.56 48.4241 46.0178 50.0648 45.9914 52.0297Z" fill="#656263"/>
<path d="M45.9914 52.0297C45.9637 53.9935 41.1283 56.3611 36.8348 56.3021C32.5419 56.2439 30.4175 53.7801 30.4446 51.8163C30.4717 49.8512 33.973 48.3067 38.2669 48.3657C42.56 48.4241 46.0178 50.0648 45.9914 52.0297Z" stroke="#1C6434" stroke-width="2.66667" stroke-miterlimit="10"/>
<path d="M69.2577 43.8792C68.5715 47.8953 66.7863 50.941 62.7704 50.2553C58.7533 49.5693 53.9501 47.3083 54.6363 43.2918C55.3219 39.2755 58.9928 35.9578 63.0093 36.6437C67.0249 37.3295 69.9433 39.8627 69.2577 43.8792Z" fill="#231F20"/>
<path d="M68.8634 43.4646C68.2451 47.0852 66.6362 49.8294 63.0174 49.2118C59.3968 48.5933 55.0676 46.5557 55.6859 42.9359C56.3038 39.3162 59.6125 36.3262 63.2315 36.9442C66.8507 37.5625 69.4815 39.8456 68.8634 43.4646Z" fill="white"/>
<path d="M61.4513 43.7233C61.2911 44.6626 60.3991 45.294 59.4601 45.1335C58.5206 44.9731 57.8889 44.0817 58.0493 43.1424C58.2099 42.2034 59.1015 41.5717 60.041 41.7319C60.9802 41.8923 61.6112 42.7843 61.4513 43.7233Z" fill="#231F20"/>
<path d="M52.8751 45.2473C52.0108 50.3075 42.6487 53.7245 34.8509 52.3932C27.0523 51.0611 23.3611 48.1939 24.2254 43.1331C25.0895 38.0729 32.4411 33.122 40.239 34.4534C48.0369 35.7854 53.7392 40.1867 52.8751 45.2473Z" fill="#80CC28"/>
<path d="M52.8751 45.2473C52.0108 50.3075 42.6487 53.7245 34.8509 52.3932C27.0523 51.0611 23.3611 48.1939 24.2254 43.1331C25.0895 38.0729 32.4411 33.122 40.239 34.4534C48.0369 35.7854 53.7392 40.1867 52.8751 45.2473V45.2473Z" stroke="#1C6434" stroke-width="2.66667" stroke-miterlimit="10"/>
<path d="M36.8479 44.7855C36.5535 46.5103 34.9166 47.669 33.1918 47.3746C31.4671 47.0805 30.3073 45.4436 30.6019 43.7189C30.8965 41.9941 32.5334 40.8347 34.2581 41.1293C35.9829 41.4237 37.1427 43.0607 36.8479 44.7855Z" fill="#231F20"/>
<path d="M46.1119 45.2636C45.8464 46.818 44.3699 47.8641 42.8155 47.5986C41.2596 47.3329 40.2147 45.8565 40.4802 44.302C40.7457 42.7464 42.222 41.7012 43.7771 41.9667C45.3317 42.2324 46.3775 43.7083 46.1119 45.2636Z" fill="#231F20"/>
<path d="M19.8922 12.3759C19.5999 14.0878 18.8327 16.3575 17.121 16.0652C15.4089 15.7729 13.4013 13.0294 13.6936 11.3173C13.9859 9.60594 15.6104 8.45537 17.3221 8.74762C19.0338 9.04006 20.1844 10.6646 19.8922 12.3759Z" fill="#1C6434"/>
<path d="M44.2241 7.6044C43.9318 9.31615 42.3203 10.3909 40.608 10.0987C38.8966 9.80644 37.7192 9.21253 38.0113 7.50077C38.3037 5.7892 39.9421 3.68356 41.6536 3.97582C43.3654 4.26807 44.5163 5.89283 44.2241 7.6044Z" fill="#1C6434"/>
<path d="M10.3019 31.1797C10.3019 31.1797 14.6393 26.4944 20.1088 27.7782C20.1088 27.7782 15.5284 25.3887 12.8837 26.5284C10.2384 27.6672 10.3019 31.1797 10.3019 31.1797Z" fill="#1C6434"/>
<path d="M66.198 34.1609C66.198 34.1609 63.662 28.3017 58.0757 27.698C58.0757 27.698 63.19 26.9634 65.3072 28.9162C67.4244 30.8689 66.198 34.1609 66.198 34.1609Z" fill="#1C6434"/>
</svg>
