<svg width="60" height="60" viewBox="0 0 60 60" fill="none" xmlns="http://www.w3.org/2000/svg">
<path d="M30.0002 60C39.2049 60 46.6668 52.538 46.6668 43.3333C46.6668 34.1285 39.2049 26.6666 30.0002 26.6666C20.7954 26.6666 13.3335 34.1285 13.3335 43.3333C13.3335 52.538 20.7954 60 30.0002 60Z" fill="#E1E8ED"/>
<path d="M20 18.3334C20 15.6812 21.0536 13.1377 22.9289 11.2623C24.8043 9.38694 27.3478 8.33337 30 8.33337C32.6522 8.33337 35.1957 9.38694 37.0711 11.2623C38.9464 13.1377 40 15.6812 40 18.3334C40 20.9855 38.9464 23.5291 37.0711 25.4044C35.1957 27.2798 32.6522 28.3334 30 28.3334C27.3478 28.3334 24.8043 27.2798 22.9289 25.4044C21.0536 23.5291 20 20.9855 20 18.3334Z" fill="#E1E8ED"/>
<path d="M38.3332 10C38.3332 10.8841 37.982 11.7319 37.3569 12.357C36.7317 12.9821 35.8839 13.3333 34.9998 13.3333H24.9998C24.1158 13.3333 23.2679 12.9821 22.6428 12.357C22.0177 11.7319 21.6665 10.8841 21.6665 10V3.33333C21.6665 2.44928 22.0177 1.60143 22.6428 0.976311C23.2679 0.35119 24.1158 0 24.9998 0L34.9998 0C35.8839 0 36.7317 0.35119 37.3569 0.976311C37.982 1.60143 38.3332 2.44928 38.3332 3.33333V10Z" fill="#414042"/>
<path d="M41.6668 11.6667C41.6668 12.1087 41.4912 12.5326 41.1787 12.8452C40.8661 13.1577 40.4422 13.3333 40.0002 13.3333H20.0002C19.5581 13.3333 19.1342 13.1577 18.8217 12.8452C18.5091 12.5326 18.3335 12.1087 18.3335 11.6667C18.3335 11.2246 18.5091 10.8007 18.8217 10.4882C19.1342 10.1756 19.5581 10 20.0002 10H40.0002C40.4422 10 40.8661 10.1756 41.1787 10.4882C41.4912 10.8007 41.6668 11.2246 41.6668 11.6667Z" fill="#231F20"/>
<path d="M37.5001 25H22.5001C21.9091 24.9953 21.3357 25.2008 20.8823 25.5799C20.4289 25.959 20.125 26.4869 20.0248 27.0693C19.9247 27.6518 20.0348 28.2509 20.3356 28.7596C20.6364 29.2684 21.1082 29.6536 21.6668 29.8466V41.6666C21.6668 42.1087 21.8424 42.5326 22.155 42.8451C22.4675 43.1577 22.8914 43.3333 23.3335 43.3333H25.0001C25.4422 43.3333 25.8661 43.1577 26.1786 42.8451C26.4912 42.5326 26.6668 42.1087 26.6668 41.6666V30H37.5001C38.1632 30 38.7991 29.7366 39.2679 29.2677C39.7367 28.7989 40.0001 28.163 40.0001 27.5C40.0001 26.8369 39.7367 26.201 39.2679 25.7322C38.7991 25.2633 38.1632 25 37.5001 25Z" fill="#DD2E44"/>
<path d="M31.6666 40C31.6768 40.225 31.6415 40.4496 31.5625 40.6605C31.4836 40.8713 31.3628 41.064 31.2073 41.2269C31.0519 41.3898 30.8651 41.5194 30.6581 41.6081C30.4512 41.6968 30.2284 41.7427 30.0033 41.7429C29.7782 41.7431 29.5553 41.6977 29.3482 41.6094C29.1411 41.5212 28.954 41.3919 28.7982 41.2293C28.6425 41.0667 28.5212 40.8743 28.4419 40.6636C28.3625 40.4529 28.3267 40.2283 28.3366 40.0034C28.3553 39.5747 28.5387 39.1697 28.8485 38.8728C29.1584 38.5759 29.5708 38.41 30 38.4095C30.4291 38.4091 30.8418 38.5742 31.1523 38.8705C31.4627 39.1668 31.6469 39.5714 31.6666 40ZM31.6666 48.3334C31.6768 48.5583 31.6415 48.783 31.5625 48.9938C31.4836 49.2047 31.3628 49.3973 31.2073 49.5602C31.0519 49.7231 30.8651 49.8528 30.6581 49.9415C30.4512 50.0302 30.2284 50.076 30.0033 50.0762C29.7782 50.0764 29.5553 50.031 29.3482 49.9428C29.1411 49.8545 28.954 49.7252 28.7982 49.5626C28.6425 49.4001 28.5212 49.2076 28.4419 48.9969C28.3625 48.7862 28.3267 48.5616 28.3366 48.3367C28.3553 47.908 28.5387 47.503 28.8485 47.2061C29.1584 46.9092 29.5708 46.7433 30 46.7429C30.4291 46.7425 30.8418 46.9076 31.1523 47.2038C31.4627 47.5001 31.6469 47.9047 31.6666 48.3334Z" fill="#414042"/>
<path d="M31.6666 20C31.6768 20.225 31.6415 20.4496 31.5625 20.6605C31.4836 20.8713 31.3628 21.064 31.2073 21.2269C31.0519 21.3898 30.8651 21.5194 30.6581 21.6081C30.4512 21.6968 30.2284 21.7427 30.0033 21.7429C29.7782 21.7431 29.5553 21.6977 29.3482 21.6094C29.1411 21.5212 28.954 21.3919 28.7982 21.2293C28.6425 21.0667 28.5212 20.8743 28.4419 20.6636C28.3625 20.4529 28.3267 20.2283 28.3366 20.0034C28.3553 19.5747 28.5387 19.1697 28.8485 18.8728C29.1584 18.5759 29.5708 18.41 30 18.4095C30.4291 18.4091 30.8418 18.5742 31.1523 18.8705C31.4627 19.1668 31.6469 19.5714 31.6666 20Z" fill="#F4900C"/>
<path d="M26.6668 16.6667C26.6668 17.1087 26.4912 17.5326 26.1787 17.8452C25.8661 18.1577 25.4422 18.3333 25.0002 18.3333C24.5581 18.3333 24.1342 18.1577 23.8217 17.8452C23.5091 17.5326 23.3335 17.1087 23.3335 16.6667C23.3335 16.2246 23.5091 15.8007 23.8217 15.4882C24.1342 15.1756 24.5581 15 25.0002 15C25.4422 15 25.8661 15.1756 26.1787 15.4882C26.4912 15.8007 26.6668 16.2246 26.6668 16.6667ZM36.6668 16.6667C36.6668 17.1087 36.4912 17.5326 36.1787 17.8452C35.8661 18.1577 35.4422 18.3333 35.0002 18.3333C34.5581 18.3333 34.1342 18.1577 33.8217 17.8452C33.5091 17.5326 33.3335 17.1087 33.3335 16.6667C33.3335 16.2246 33.5091 15.8007 33.8217 15.4882C34.1342 15.1756 34.5581 15 35.0002 15C35.4422 15 35.8661 15.1756 36.1787 15.4882C36.4912 15.8007 36.6668 16.2246 36.6668 16.6667Z" fill="#414042"/>
<path d="M17.3233 33.4684L11.57 31.0034L10.6583 26.2267C10.5754 25.7924 10.3234 25.4088 9.95774 25.1604C9.59205 24.9119 9.14262 24.8188 8.70833 24.9017C8.27403 24.9846 7.89045 25.2366 7.64197 25.6023C7.39348 25.968 7.30045 26.4174 7.38333 26.8517L7.87333 29.4184L5.65666 28.4684C5.25044 28.2942 4.79167 28.2886 4.38128 28.4527C3.97088 28.6168 3.64249 28.9372 3.46833 29.3434C3.29417 29.7496 3.28851 30.2084 3.45261 30.6188C3.6167 31.0292 3.9371 31.3576 4.34333 31.5317L5.58166 32.0617L3.82166 33.8217C3.66692 33.9765 3.54417 34.1602 3.46043 34.3623C3.37668 34.5645 3.33358 34.7812 3.33358 35C3.33358 35.2189 3.37668 35.4356 3.46043 35.6378C3.54417 35.8399 3.66692 36.0236 3.82166 36.1784C3.9764 36.3331 4.16011 36.4559 4.36228 36.5396C4.56446 36.6234 4.78116 36.6665 4.99999 36.6665C5.21883 36.6665 5.43552 36.6234 5.6377 36.5396C5.83988 36.4559 6.02359 36.3331 6.17833 36.1784L8.87999 33.4767L16.01 36.5317C16.2111 36.6179 16.4273 36.6637 16.6461 36.6664C16.865 36.6691 17.0822 36.6287 17.2854 36.5474C17.4886 36.4662 17.6738 36.3457 17.8304 36.1929C17.9871 36.04 18.1121 35.8579 18.1983 35.6567C18.2846 35.4556 18.3303 35.2394 18.333 35.0206C18.3357 34.8018 18.2953 34.5845 18.214 34.3813C18.1328 34.1781 18.0123 33.9929 17.8595 33.8363C17.7067 33.6796 17.5245 33.5546 17.3233 33.4684ZM55.5267 28.4184L53.085 27.605L54.51 26.18C54.6647 26.0253 54.7875 25.8416 54.8712 25.6394C54.955 25.4372 54.9981 25.2206 54.9981 25.0017C54.9981 24.7829 54.955 24.5662 54.8712 24.364C54.7875 24.1618 54.6647 23.9781 54.51 23.8234C54.3553 23.6686 54.1716 23.5459 53.9694 23.4621C53.7672 23.3784 53.5505 23.3353 53.3317 23.3353C53.1128 23.3353 52.8961 23.3784 52.694 23.4621C52.4918 23.5459 52.3081 23.6686 52.1533 23.8234L50.9017 25.075L49.9483 21.2634C49.8951 21.0512 49.8007 20.8515 49.6703 20.6759C49.54 20.5002 49.3763 20.3519 49.1887 20.2394C49.001 20.127 48.7931 20.0526 48.5767 20.0206C48.3603 19.9885 48.1397 19.9994 47.9275 20.0525C47.7153 20.1057 47.5157 20.2002 47.34 20.3305C47.1643 20.4609 47.016 20.6245 46.9036 20.8122C46.7911 20.9998 46.7167 21.2078 46.6847 21.4242C46.6526 21.6406 46.6635 21.8612 46.7167 22.0734L48.1533 27.8234L42.1533 33.8234C41.841 34.1361 41.6658 34.5601 41.6661 35.0021C41.6664 35.444 41.8423 35.8678 42.155 36.18C42.4677 36.4923 42.8917 36.6676 43.3337 36.6673C43.7756 36.667 44.1994 36.4911 44.5117 36.1784L50.45 30.24L54.4717 31.5817C54.6794 31.651 54.8987 31.6787 55.1171 31.6632C55.3355 31.6477 55.5487 31.5893 55.7446 31.4915C55.9404 31.3936 56.1151 31.2581 56.2586 31.0927C56.4021 30.9273 56.5116 30.7353 56.5808 30.5275C56.6501 30.3198 56.6778 30.1005 56.6623 29.8821C56.6468 29.6637 56.5885 29.4505 56.4906 29.2546C56.3927 29.0588 56.2572 28.8841 56.0918 28.7406C55.9264 28.5972 55.7344 28.4877 55.5267 28.4184Z" fill="#FFAC33"/>
<path d="M16.8002 3.52163C16.6775 3.33809 16.4869 3.21078 16.2703 3.16766C16.0537 3.12453 15.8289 3.16912 15.6452 3.29163L14.1669 4.27663V2.49996C14.1669 2.27895 14.0791 2.06698 13.9228 1.9107C13.7665 1.75442 13.5546 1.66663 13.3336 1.66663C13.1125 1.66663 12.9006 1.75442 12.7443 1.9107C12.588 2.06698 12.5002 2.27895 12.5002 2.49996V4.27663L11.0219 3.29163C10.9312 3.22433 10.8277 3.17617 10.7178 3.15009C10.6079 3.12401 10.4938 3.12055 10.3825 3.13991C10.2713 3.15927 10.1651 3.20106 10.0704 3.26273C9.97579 3.3244 9.89467 3.40467 9.83201 3.49866C9.76936 3.59265 9.72646 3.69839 9.70593 3.80947C9.6854 3.92055 9.68767 4.03464 9.7126 4.14481C9.73753 4.25499 9.7846 4.35895 9.85095 4.45037C9.91729 4.54179 10.0015 4.61877 10.0986 4.67663L11.8319 5.83329L10.0986 6.98829C9.91445 7.11095 9.78661 7.30173 9.74317 7.51865C9.69972 7.73556 9.74422 7.96086 9.86689 8.14496C9.98955 8.32906 10.1803 8.4569 10.3972 8.50035C10.6142 8.54379 10.8394 8.49929 11.0236 8.37663L12.5002 7.38996V9.16663C12.5002 9.38764 12.588 9.5996 12.7443 9.75588C12.9006 9.91216 13.1125 9.99996 13.3336 9.99996C13.5546 9.99996 13.7665 9.91216 13.9228 9.75588C14.0791 9.5996 14.1669 9.38764 14.1669 9.16663V7.38996L15.6452 8.37496C15.7363 8.4357 15.8384 8.4779 15.9458 8.49917C16.0531 8.52044 16.1636 8.52036 16.2709 8.49892C16.3783 8.47749 16.4803 8.43512 16.5713 8.37425C16.6622 8.31337 16.7403 8.23518 16.801 8.14413C16.8618 8.05308 16.904 7.95095 16.9253 7.84359C16.9465 7.73623 16.9464 7.62573 16.925 7.5184C16.9036 7.41107 16.8612 7.30902 16.8003 7.21806C16.7395 7.1271 16.6613 7.04903 16.5702 6.98829L14.8352 5.83329L16.5686 4.67829C16.6598 4.61763 16.7382 4.53956 16.7992 4.44857C16.8602 4.35758 16.9027 4.25544 16.9243 4.148C16.9458 4.04057 16.9459 3.92994 16.9246 3.82246C16.9033 3.71498 16.8611 3.61275 16.8002 3.52163ZM10.1336 15.1883C10.0108 15.0048 9.8202 14.8774 9.60364 14.8343C9.38708 14.7912 9.16226 14.8358 8.97855 14.9583L7.50022 15.9433V14.1666C7.50022 13.9456 7.41242 13.7336 7.25614 13.5774C7.09986 13.4211 6.8879 13.3333 6.66688 13.3333C6.44587 13.3333 6.23391 13.4211 6.07763 13.5774C5.92135 13.7336 5.83355 13.9456 5.83355 14.1666V15.9433L4.35522 14.9583C4.2645 14.891 4.16104 14.8428 4.05113 14.8168C3.94122 14.7907 3.82716 14.7872 3.71587 14.8066C3.60459 14.8259 3.4984 14.8677 3.40376 14.9294C3.30912 14.9911 3.22801 15.0713 3.16535 15.1653C3.10269 15.2593 3.05979 15.3651 3.03927 15.4761C3.01874 15.5872 3.02101 15.7013 3.04594 15.8115C3.07087 15.9217 3.11793 16.0256 3.18428 16.117C3.25063 16.2085 3.33487 16.2854 3.43189 16.3433L5.16522 17.4983L3.43189 18.6533C3.248 18.776 3.12038 18.9666 3.07709 19.1834C3.0338 19.4002 3.07839 19.6252 3.20105 19.8091C3.32371 19.993 3.5144 20.1206 3.73116 20.1639C3.94792 20.2072 4.173 20.1626 4.35689 20.04L5.83355 19.0566V20.8333C5.83355 21.0543 5.92135 21.2663 6.07763 21.4225C6.23391 21.5788 6.44587 21.6666 6.66688 21.6666C6.8879 21.6666 7.09986 21.5788 7.25614 21.4225C7.41242 21.2663 7.50022 21.0543 7.50022 20.8333V19.0566L8.97855 20.0416C9.16243 20.1643 9.38751 20.2089 9.60428 20.1656C9.82104 20.1223 10.0117 19.9947 10.1344 19.8108C10.257 19.6269 10.3016 19.4018 10.2583 19.1851C10.2151 18.9683 10.0874 18.7776 9.90355 18.655L8.16855 17.5L9.90189 16.345C9.99313 16.2843 10.0715 16.2062 10.1325 16.1152C10.1936 16.0242 10.2361 15.9221 10.2576 15.8147C10.2791 15.7072 10.2792 15.5966 10.2579 15.4891C10.2367 15.3816 10.1944 15.2794 10.1336 15.1883ZM10.1336 43.5216C10.011 43.3378 9.82058 43.2102 9.604 43.1667C9.38743 43.1233 9.16246 43.1676 8.97855 43.29L7.50022 44.2766V42.5C7.50022 42.2789 7.41242 42.067 7.25614 41.9107C7.09986 41.7544 6.8879 41.6666 6.66688 41.6666C6.44587 41.6666 6.23391 41.7544 6.07763 41.9107C5.92135 42.067 5.83355 42.2789 5.83355 42.5V44.2766L4.35522 43.2916C4.26427 43.2271 4.1613 43.1816 4.05242 43.1576C3.94354 43.1336 3.83095 43.1317 3.72133 43.152C3.6117 43.1724 3.50727 43.2145 3.41421 43.2759C3.32116 43.3373 3.24137 43.4167 3.17958 43.5095C3.11779 43.6024 3.07524 43.7066 3.05447 43.8161C3.0337 43.9257 3.03512 44.0383 3.05864 44.1473C3.08217 44.2562 3.12732 44.3594 3.19144 44.4506C3.25555 44.5418 3.33731 44.6192 3.43189 44.6783L5.16522 45.8333L3.43189 46.9883C3.34084 47.049 3.26264 47.1271 3.20176 47.2181C3.14089 47.309 3.09852 47.4111 3.07709 47.5184C3.05565 47.6257 3.05557 47.7362 3.07684 47.8436C3.09811 47.951 3.14032 48.0531 3.20105 48.1441C3.26179 48.2352 3.33986 48.3134 3.43082 48.3742C3.52178 48.4351 3.62383 48.4775 3.73116 48.4989C3.83849 48.5204 3.94899 48.5204 4.05635 48.4992C4.16371 48.4779 4.26584 48.4357 4.35689 48.375L5.83355 47.39V49.1666C5.83355 49.3876 5.92135 49.5996 6.07763 49.7559C6.23391 49.9122 6.44587 50 6.66688 50C6.8879 50 7.09986 49.9122 7.25614 49.7559C7.41242 49.5996 7.50022 49.3876 7.50022 49.1666V47.39L8.97855 48.375C9.0696 48.4357 9.17172 48.4779 9.27908 48.4992C9.38645 48.5204 9.49695 48.5204 9.60428 48.4989C9.7116 48.4775 9.81366 48.4351 9.90462 48.3742C9.99557 48.3134 10.0736 48.2352 10.1344 48.1441C10.1951 48.0531 10.2373 47.951 10.2586 47.8436C10.2799 47.7362 10.2798 47.6257 10.2583 47.5184C10.2369 47.4111 10.1945 47.309 10.1337 47.2181C10.0728 47.1271 9.9946 47.049 9.90355 46.9883L8.16855 45.8333L9.90189 44.6783C9.99313 44.6176 10.0715 44.5396 10.1325 44.4486C10.1936 44.3576 10.2361 44.2554 10.2576 44.148C10.2791 44.0406 10.2792 43.9299 10.2579 43.8225C10.2367 43.715 10.1944 43.6128 10.1336 43.5216ZM56.5019 15.8333L58.2352 14.6783C58.3298 14.6192 58.4116 14.5418 58.4757 14.4506C58.5398 14.3594 58.5849 14.2562 58.6085 14.1473C58.632 14.0383 58.6334 13.9257 58.6126 13.8161C58.5919 13.7066 58.5493 13.6024 58.4875 13.5095C58.4257 13.4167 58.3459 13.3373 58.2529 13.2759C58.1598 13.2145 58.0554 13.1724 57.9458 13.152C57.8361 13.1317 57.7236 13.1336 57.6147 13.1576C57.5058 13.1816 57.4028 13.2271 57.3119 13.2916L55.8335 14.2766V12.5C55.8335 12.2789 55.7458 12.067 55.5895 11.9107C55.4332 11.7544 55.2212 11.6666 55.0002 11.6666C54.7792 11.6666 54.5672 11.7544 54.411 11.9107C54.2547 12.067 54.1669 12.2789 54.1669 12.5V14.2766L52.6885 13.2916C52.5976 13.2271 52.4946 13.1816 52.3857 13.1576C52.2769 13.1336 52.1643 13.1317 52.0547 13.152C51.945 13.1724 51.8406 13.2145 51.7475 13.2759C51.6545 13.3373 51.5747 13.4167 51.5129 13.5095C51.4511 13.6024 51.4086 13.7066 51.3878 13.8161C51.367 13.9257 51.3684 14.0383 51.392 14.1473C51.4155 14.2562 51.4607 14.3594 51.5248 14.4506C51.5889 14.5418 51.6706 14.6192 51.7652 14.6783L53.4985 15.8333L51.7652 16.9883C51.6742 17.049 51.596 17.1271 51.5351 17.2181C51.4742 17.309 51.4319 17.4111 51.4104 17.5184C51.389 17.6257 51.3889 17.7362 51.4102 17.8436C51.4314 17.951 51.4736 18.0531 51.5344 18.1441C51.5951 18.2352 51.6732 18.3134 51.7641 18.3742C51.8551 18.4351 51.9572 18.4775 52.0645 18.4989C52.1718 18.5204 52.2823 18.5204 52.3897 18.4992C52.497 18.4779 52.5992 18.4357 52.6902 18.375L54.1685 17.39V19.1666C54.1685 19.3876 54.2563 19.5996 54.4126 19.7559C54.5689 19.9122 54.7809 20 55.0019 20C55.2229 20 55.4349 19.9122 55.5911 19.7559C55.7474 19.5996 55.8352 19.3876 55.8352 19.1666V17.39L57.3135 18.375C57.4046 18.4357 57.5067 18.4779 57.6141 18.4992C57.7214 18.5204 57.8319 18.5204 57.9393 18.4989C58.0466 18.4775 58.1487 18.4351 58.2396 18.3742C58.3306 18.3134 58.4086 18.2352 58.4694 18.1441C58.5301 18.0531 58.5723 17.951 58.5936 17.8436C58.6149 17.7362 58.6148 17.6257 58.5933 17.5184C58.5719 17.4111 58.5295 17.309 58.4687 17.2181C58.4078 17.1271 58.3296 17.049 58.2386 16.9883L56.5019 15.8333ZM56.8002 38.5216C56.6777 38.3378 56.4872 38.2102 56.2707 38.1667C56.0541 38.1233 55.8291 38.1676 55.6452 38.29L54.1669 39.2766V37.5C54.1669 37.2789 54.0791 37.067 53.9228 36.9107C53.7665 36.7544 53.5546 36.6666 53.3335 36.6666C53.1125 36.6666 52.9006 36.7544 52.7443 36.9107C52.588 37.067 52.5002 37.2789 52.5002 37.5V39.2766L51.0219 38.2916C50.9309 38.2271 50.828 38.1816 50.7191 38.1576C50.6102 38.1336 50.4976 38.1317 50.388 38.152C50.2784 38.1724 50.1739 38.2145 50.0809 38.2759C49.9878 38.3373 49.908 38.4167 49.8462 38.5095C49.7844 38.6024 49.7419 38.7066 49.7211 38.8161C49.7004 38.9257 49.7018 39.0383 49.7253 39.1473C49.7488 39.2562 49.794 39.3594 49.8581 39.4506C49.9222 39.5418 50.004 39.6192 50.0985 39.6783L51.8319 40.8333L50.0985 41.9883C50.0075 42.049 49.9293 42.1271 49.8684 42.2181C49.8075 42.309 49.7652 42.4111 49.7437 42.5184C49.7223 42.6257 49.7222 42.7362 49.7435 42.8436C49.7648 42.951 49.807 43.0531 49.8677 43.1441C49.9285 43.2352 50.0065 43.3134 50.0975 43.3742C50.1884 43.4351 50.2905 43.4775 50.3978 43.4989C50.5051 43.5204 50.6157 43.5204 50.723 43.4992C50.8304 43.4779 50.9325 43.4357 51.0235 43.375L52.5019 42.39V44.1666C52.5019 44.3876 52.5897 44.5996 52.746 44.7559C52.9022 44.9122 53.1142 45 53.3352 45C53.5562 45 53.7682 44.9122 53.9245 44.7559C54.0807 44.5996 54.1685 44.3876 54.1685 44.1666V42.39L55.6469 43.375C55.7379 43.4357 55.8401 43.4779 55.9474 43.4992C56.0548 43.5204 56.1653 43.5204 56.2726 43.4989C56.3799 43.4775 56.482 43.4351 56.5729 43.3742C56.6639 43.3134 56.742 43.2352 56.8027 43.1441C56.8635 43.0531 56.9057 42.951 56.9269 42.8436C56.9482 42.7362 56.9481 42.6257 56.9267 42.5184C56.9052 42.4111 56.8629 42.309 56.802 42.2181C56.7411 42.1271 56.6629 42.049 56.5719 41.9883L54.8385 40.8333L56.5719 39.6783C56.7549 39.5547 56.8816 39.3637 56.9244 39.147C56.9672 38.9303 56.9225 38.7055 56.8002 38.5216ZM49.9019 6.98829L48.1685 5.83329L49.9019 4.67829C49.9965 4.61925 50.0782 4.54183 50.1423 4.45061C50.2064 4.3594 50.2516 4.25624 50.2751 4.14726C50.2986 4.03828 50.3001 3.92569 50.2793 3.81615C50.2585 3.70661 50.216 3.60235 50.1542 3.50955C50.0924 3.41675 50.0126 3.33729 49.9196 3.27588C49.8265 3.21447 49.7221 3.17236 49.6124 3.15204C49.5028 3.13172 49.3902 3.1336 49.2813 3.15758C49.1725 3.18156 49.0695 3.22714 48.9785 3.29163L47.5002 4.27663V2.49996C47.5002 2.27895 47.4124 2.06698 47.2561 1.9107C47.0999 1.75442 46.8879 1.66663 46.6669 1.66663C46.4459 1.66663 46.2339 1.75442 46.0776 1.9107C45.9213 2.06698 45.8335 2.27895 45.8335 2.49996V4.27663L44.3552 3.29163C44.2643 3.22714 44.1613 3.18156 44.0524 3.15758C43.9435 3.1336 43.8309 3.13172 43.7213 3.15204C43.6117 3.17236 43.5073 3.21447 43.4142 3.27588C43.3212 3.33729 43.2414 3.41675 43.1796 3.50955C43.1178 3.60235 43.0752 3.70661 43.0545 3.81615C43.0337 3.92569 43.0351 4.03828 43.0586 4.14726C43.0822 4.25624 43.1273 4.3594 43.1914 4.45061C43.2555 4.54183 43.3373 4.61925 43.4319 4.67829L45.1652 5.83329L43.4319 6.98829C43.3408 7.04903 43.2626 7.1271 43.2018 7.21806C43.1409 7.30902 43.0985 7.41107 43.0771 7.5184C43.0556 7.62573 43.0556 7.73623 43.0768 7.84359C43.0981 7.95095 43.1403 8.05308 43.201 8.14413C43.2618 8.23518 43.3399 8.31337 43.4308 8.37425C43.5218 8.43512 43.6238 8.47749 43.7312 8.49892C43.8385 8.52036 43.949 8.52044 44.0563 8.49917C44.1637 8.4779 44.2658 8.4357 44.3569 8.37496L45.8335 7.38996V9.16663C45.8335 9.38764 45.9213 9.5996 46.0776 9.75588C46.2339 9.91216 46.4459 9.99996 46.6669 9.99996C46.8879 9.99996 47.0999 9.91216 47.2561 9.75588C47.4124 9.5996 47.5002 9.38764 47.5002 9.16663V7.38996L48.9785 8.37496C49.0695 8.43945 49.1725 8.48503 49.2813 8.50901C49.3902 8.53298 49.5028 8.53487 49.6124 8.51455C49.7221 8.49423 49.8265 8.45211 49.9196 8.3907C50.0126 8.32929 50.0924 8.24984 50.1542 8.15704C50.216 8.06423 50.2585 7.95998 50.2793 7.85044C50.3001 7.7409 50.2986 7.6283 50.2751 7.51932C50.2516 7.41034 50.2064 7.30719 50.1423 7.21597C50.0782 7.12476 49.9965 7.04734 49.9019 6.98829Z" fill="#88C9F9"/>
</svg>
