<svg width="213" height="142" viewBox="0 0 213 142" fill="none" xmlns="http://www.w3.org/2000/svg">
<g clip-path="url(#clip0_16_10092)">
<path fill-rule="evenodd" clip-rule="evenodd" d="M0 0H303.525V10.9273H0V0ZM0 21.8547H303.525V32.782H0V21.8547ZM0 43.6816H303.525V54.6367H0V43.6816ZM0 65.5363H303.525V76.4637H0V65.5363ZM0 87.391H303.525V98.3184H0V87.391ZM0 109.218H303.525V120.145H0V109.218ZM0 131.073H303.525V142H0V131.073Z" fill="#BD3D44"/>
<path fill-rule="evenodd" clip-rule="evenodd" d="M0 10.9273H303.525V21.8547H0V10.9273ZM0 32.782H303.525V43.6816H0V32.782ZM0 54.609H303.525V65.5363H0V54.609ZM0 76.4637H303.525V87.391H0V76.4637ZM0 98.3184H303.525V109.246H0V98.3184ZM0 120.145H303.525V131.073H0V120.145Z" fill="white"/>
<path fill-rule="evenodd" clip-rule="evenodd" d="M0 0H121.404V76.4637H0V0Z" fill="#192F5D"/>
<path fill-rule="evenodd" clip-rule="evenodd" d="M10.1094 3.27266L11.2326 6.2957H14.7896L11.919 8.1539L13.0111 11.2047L10.1094 9.31875L7.23887 11.1769L8.33091 8.1539L5.4292 6.2957H9.04854L10.1094 3.27266ZM30.3589 3.27266L31.451 6.2957H35.0391L32.1374 8.1539L33.2294 11.2047L30.3589 9.31875L27.4572 11.1769L28.5493 8.1539L25.6788 6.2957H29.2357L30.3589 3.27266ZM50.5773 3.27266L51.7005 6.2957H55.2263L52.3558 8.1539L53.4478 11.2047L50.5461 9.31875L47.6756 11.1769L48.7676 8.1539L45.8659 6.2957H49.4541L50.5773 3.27266ZM70.8269 3.27266L71.9189 6.2957H75.507L72.6053 8.1539L73.7286 11.2047L70.8269 9.31875L67.9252 11.1769L69.0484 8.1539L66.1467 6.2957H69.7036L70.8269 3.27266ZM91.0452 3.27266L92.1685 6.2957H95.7254L92.8549 8.1539L93.9469 11.2047L91.0452 9.31875L88.1747 11.1769L89.2668 8.1539L86.3962 6.2957H89.9532L91.0452 3.27266ZM111.295 3.27266L112.387 6.2957H115.975L113.073 8.1539L114.196 11.2047L111.295 9.31875L108.393 11.1769L109.516 8.1539L106.615 6.2957H110.203L111.295 3.27266ZM20.2498 10.9273L21.3418 13.9504H24.9299L22.0282 15.8086L23.0891 18.8316L20.281 16.9734L17.3793 18.8316L18.4089 15.8086L15.6008 13.9504H19.1577L20.2498 10.9273ZM40.4681 10.9273L41.5914 13.9504H45.1483L42.2466 15.8086L43.3698 18.8316L40.4681 16.9734L37.5664 18.8316L38.6897 15.8086L35.7879 13.9504H39.3761L40.4681 10.9273ZM60.7177 10.9273L61.8097 13.9504H65.3979L62.4962 15.8086L63.5882 18.8316L60.7177 16.9734L57.816 18.8316L58.908 15.8086L56.0375 13.9504H59.5944L60.7177 10.9273ZM80.936 10.9273L82.0593 13.9504H85.6162L82.7145 15.8086L83.8378 18.8316L80.936 16.9734L78.0655 18.8316L79.1576 15.8086L76.2559 13.9504H79.8752L80.936 10.9273ZM101.186 10.9273L102.278 13.9504H105.866L102.964 15.8086L104.056 18.8316L101.186 16.9734L98.2839 18.8316L99.3759 15.8086L96.5054 13.9504H100.062L101.186 10.9273ZM10.1094 18.5543L11.2326 21.6328H14.7896L11.919 23.491L13.0111 26.514L10.1094 24.6281L7.23887 26.514L8.33091 23.4633L5.4292 21.6051H9.04854L10.1094 18.5543ZM30.3589 18.5543L31.451 21.6051H35.0391L32.1374 23.4633L33.2294 26.4863L30.3589 24.6004L27.4572 26.4863L28.5493 23.4355L25.6788 21.5773H29.2357L30.3589 18.5543ZM50.5773 18.5543L51.7005 21.6051H55.2263L52.3558 23.4633L53.4478 26.4863L50.5461 24.6004L47.6756 26.4863L48.7676 23.4355L45.8659 21.5773H49.4541L50.5773 18.5543ZM70.8269 18.5543L71.9189 21.6051H75.507L72.6053 23.4633L73.7286 26.4863L70.8269 24.6004L67.9252 26.4863L69.0484 23.4355L66.1467 21.5773H69.7036L70.8269 18.5543ZM91.0452 18.5543L92.1685 21.6051H95.7254L92.8549 23.4633L93.9469 26.4863L91.0452 24.6004L88.1747 26.4863L89.2668 23.4355L86.3962 21.5773H89.9532L91.0452 18.5543ZM111.295 18.5543L112.387 21.6051H115.975L113.073 23.4633L114.196 26.4863L111.295 24.6004L108.393 26.4863L109.516 23.4355L106.615 21.5773H110.203L111.295 18.5543ZM20.2498 26.209L21.3418 29.232H24.9299L22.0282 31.0902L23.1203 34.141L20.2498 32.2551L17.348 34.1133L18.4401 31.0902L15.5696 29.232H19.1265L20.2498 26.209ZM40.4681 26.209L41.5914 29.232H45.1483L42.2466 31.0902L43.3698 34.141L40.4681 32.2551L37.5664 34.1133L38.6897 31.0902L35.7879 29.232H39.3761L40.4681 26.209ZM60.7177 26.209L61.8097 29.232H65.3979L62.4962 31.0902L63.5882 34.141L60.7177 32.2551L57.816 34.1133L58.908 31.0902L56.0375 29.232H59.5944L60.7177 26.209ZM80.936 26.209L82.0593 29.232H85.6162L82.7457 31.0902L83.8378 34.141L80.936 32.2551L78.0655 34.1133L79.1576 31.0902L76.2559 29.232H79.8752L80.936 26.209ZM101.186 26.209L102.278 29.232H105.866L102.964 31.0902L104.056 34.141L101.186 32.2551L98.2839 34.1133L99.3759 31.0902L96.5054 29.232H100.062L101.186 26.209ZM10.1094 33.8637L11.2326 36.8867H14.7896L11.919 38.7449L13.0111 41.7957L10.1094 39.9097L7.23887 41.7679L8.33091 38.7449L5.4292 36.8867H9.04854L10.1094 33.8637ZM30.3589 33.8637L31.451 36.8867H35.0391L32.1374 38.7449L33.2294 41.7679L30.3589 39.9097L27.4572 41.7679L28.5493 38.7449L25.6788 36.8867H29.2357L30.3589 33.8637ZM50.5773 33.8637L51.7005 36.8867H55.2263L52.3558 38.7449L53.4478 41.7957L50.5461 39.9097L47.6756 41.7679L48.7676 38.7449L45.8659 36.8867H49.4541L50.5773 33.8637ZM70.8269 33.8637L71.9189 36.8867H75.507L72.6053 38.7449L73.7286 41.7957L70.8269 39.9097L67.9252 41.7679L69.0484 38.7449L66.1467 36.8867H69.7036L70.8269 33.8637ZM91.0452 33.8637L92.1685 36.8867H95.7254L92.8549 38.7449L93.9469 41.7957L91.0452 39.9097L88.1747 41.7679L89.2668 38.7449L86.3962 36.8867H89.9532L91.0452 33.8637ZM111.295 33.8637L112.387 36.8867H115.975L113.073 38.7449L114.196 41.7957L111.295 39.9097L108.393 41.7679L109.516 38.7449L106.615 36.8867H110.203L111.295 33.8637ZM20.2498 41.5183L21.3418 44.5414H24.9299L22.0282 46.3996L23.1203 49.4226L20.2498 47.5367L17.348 49.4226L18.4401 46.3718L15.5696 44.5136H19.1265L20.2498 41.5183ZM40.4681 41.5183L41.5914 44.5414H45.1483L42.2466 46.3996L43.3698 49.4226L40.4681 47.5367L37.5664 49.4226L38.6897 46.3718L35.7879 44.5136H39.3761L40.4681 41.5183ZM60.7177 41.5183L61.8097 44.5414H65.3979L62.4962 46.3996L63.5882 49.4226L60.7177 47.5367L57.816 49.4226L58.908 46.3718L56.0375 44.5136H59.5944L60.7177 41.5183ZM80.936 41.5183L82.0593 44.5414H85.6162L82.7457 46.3996L83.8378 49.4226L80.936 47.5367L78.0655 49.4226L79.1576 46.3718L76.2559 44.5136H79.8752L80.936 41.5183ZM101.186 41.5183L102.278 44.5414H105.866L102.964 46.3996L104.056 49.4226L101.186 47.5367L98.2839 49.4226L99.3759 46.3718L96.5054 44.5136H100.062L101.186 41.5183ZM10.1094 49.1453L11.2326 52.1961H14.7896L11.919 54.0543L13.0111 57.0496L10.1094 55.1914L7.23887 57.0496L8.33091 54.0265L5.4292 52.1683H9.04854L10.1094 49.1453ZM30.3589 49.1453L31.451 52.1961H35.0391L32.1374 54.0543L33.2606 57.0496L30.3589 55.1914L27.4572 57.0496L28.5805 54.0265L25.6788 52.1683H29.2357L30.3589 49.1453ZM50.5773 49.1453L51.7005 52.1961H55.2263L52.3558 54.0543L53.4478 57.0496L50.5461 55.1914L47.6756 57.0496L48.7676 54.0265L45.8659 52.1683H49.4541L50.5773 49.1453ZM70.8269 49.1453L71.9189 52.1961H75.507L72.6053 54.0543L73.7286 57.0496L70.8269 55.1914L67.9252 57.0496L69.0484 54.0265L66.1467 52.1683H69.7036L70.8269 49.1453ZM91.0452 49.1453L92.1685 52.1961H95.7254L92.8549 54.0543L93.9469 57.0496L91.0452 55.1914L88.1747 57.0496L89.2668 54.0265L86.3962 52.1683H89.9532L91.0452 49.1453ZM111.295 49.1453L112.387 52.1961H115.975L113.073 54.0543L114.196 57.0496L111.295 55.1914L108.393 57.0496L109.516 54.0265L106.615 52.1683H110.203L111.295 49.1453ZM20.2498 56.8L21.3418 59.823H24.9299L22.0282 61.6812L23.1203 64.732L20.2498 62.8461L17.348 64.7043L18.4401 61.6812L15.5696 59.823H19.1265L20.2498 56.8ZM40.4681 56.8L41.5914 59.823H45.1483L42.2466 61.6812L43.3698 64.732L40.4681 62.8461L37.5664 64.7043L38.6897 61.6812L35.7879 59.823H39.3761L40.4681 56.8ZM60.7177 56.8L61.8097 59.823H65.3979L62.4962 61.6812L63.5882 64.732L60.7177 62.8461L57.816 64.7043L58.908 61.6812L56.0375 59.823H59.5944L60.7177 56.8ZM80.936 56.8L82.0593 59.823H85.6162L82.7457 61.6812L83.8378 64.732L80.936 62.8461L78.0655 64.7043L79.1576 61.6812L76.2559 59.823H79.8752L80.936 56.8ZM101.186 56.8L102.278 59.823H105.866L102.964 61.6812L104.056 64.732L101.186 62.8461L98.2839 64.7043L99.3759 61.6812L96.5054 59.823H100.062L101.186 56.8ZM10.1094 64.4547L11.2326 67.4777H14.7896L11.919 69.3359L13.0111 72.3589L10.1094 70.5007L7.23887 72.3589L8.33091 69.3082L5.4292 67.45H9.04854L10.1094 64.4547ZM30.3589 64.4547L31.451 67.4777H35.0391L32.1374 69.3359L33.2606 72.3589L30.3589 70.5007L27.4572 72.3589L28.5805 69.3082L25.6788 67.45H29.2357L30.3589 64.4547ZM50.5773 64.4547L51.7005 67.4777H55.2263L52.4182 69.3359L53.5102 72.3589L50.6085 70.5007L47.738 72.3589L48.83 69.3082L45.9283 67.45H49.5165L50.5773 64.4547ZM70.8269 64.4547L71.9189 67.4777H75.507L72.6053 69.3359L73.7286 72.3589L70.8269 70.5007L67.9252 72.3589L69.0484 69.3082L66.1467 67.45H69.7036L70.8269 64.4547ZM91.0452 64.4547L92.1685 67.4777H95.7254L92.8549 69.3359L93.9469 72.3589L91.0452 70.5007L88.1747 72.3589L89.2668 69.3082L86.3962 67.45H89.9532L91.0452 64.4547ZM111.295 64.4547L112.387 67.4777H115.975L113.073 69.3359L114.196 72.3589L111.295 70.5007L108.393 72.3589L109.516 69.3082L106.615 67.45H110.203L111.295 64.4547Z" fill="white"/>
</g>
<defs>
<clipPath id="clip0_16_10092">
<rect width="213" height="142" fill="white"/>
</clipPath>
</defs>
</svg>
