<svg width="50" height="50" viewBox="0 0 50 50" fill="none" xmlns="http://www.w3.org/2000/svg">
<path d="M28.7919 45.8333H21.2085C20.7334 45.8334 20.2725 45.6711 19.9023 45.3732C19.5321 45.0754 19.2748 44.66 19.1731 44.1958L18.3252 40.2708C17.1941 39.7752 16.1215 39.1554 15.1273 38.4229L11.3002 39.6417C10.8472 39.7861 10.3584 39.7713 9.91504 39.5996C9.47164 39.4279 9.10031 39.1098 8.86271 38.6979L5.06271 32.1333C4.82759 31.7211 4.73934 31.2413 4.81238 30.7724C4.88542 30.3035 5.11543 29.8733 5.46479 29.5521L8.43354 26.8437C8.29853 25.6169 8.29853 24.3789 8.43354 23.1521L5.46479 20.45C5.11494 20.1287 4.88461 19.6981 4.81156 19.2287C4.73851 18.7593 4.82706 18.2791 5.06271 17.8667L8.85437 11.2979C9.09198 10.8861 9.46331 10.5679 9.90671 10.3962C10.3501 10.2245 10.8389 10.2097 11.2919 10.3542L15.119 11.5729C15.6273 11.1979 16.1565 10.8479 16.7023 10.5312C17.2294 10.2354 17.771 9.96666 18.3252 9.72707L19.1752 5.80624C19.2764 5.34207 19.5332 4.92642 19.903 4.62822C20.2728 4.33001 20.7335 4.16716 21.2085 4.16666H28.7919C29.2669 4.16716 29.7276 4.33001 30.0974 4.62822C30.4672 4.92642 30.724 5.34207 30.8252 5.80624L31.6835 9.72916C32.2669 9.98749 32.8377 10.2771 33.3898 10.6C33.9044 10.8979 34.4023 11.225 34.8815 11.5771L38.7106 10.3583C39.1633 10.2144 39.6516 10.2295 40.0946 10.4012C40.5375 10.5728 40.9085 10.8907 41.146 11.3021L44.9377 17.8708C45.421 18.7187 45.2544 19.7917 44.5356 20.4521L41.5669 23.1604C41.7019 24.3873 41.7019 25.6252 41.5669 26.8521L44.5356 29.5604C45.2544 30.2229 45.421 31.2937 44.9377 32.1417L41.146 38.7104C40.9084 39.1222 40.5371 39.4404 40.0937 39.6121C39.6503 39.7838 39.1615 39.7986 38.7085 39.6542L34.8815 38.4354C33.888 39.1674 32.8161 39.7865 31.6856 40.2812L30.8252 44.1958C30.7236 44.6596 30.4666 45.0748 30.0968 45.3726C29.7271 45.6704 29.2667 45.8329 28.7919 45.8333ZM24.9919 16.6667C22.7817 16.6667 20.6621 17.5446 19.0993 19.1074C17.5365 20.6702 16.6585 22.7899 16.6585 25C16.6585 27.2101 17.5365 29.3297 19.0993 30.8925C20.6621 32.4554 22.7817 33.3333 24.9919 33.3333C27.202 33.3333 29.3216 32.4554 30.8844 30.8925C32.4472 29.3297 33.3252 27.2101 33.3252 25C33.3252 22.7899 32.4472 20.6702 30.8844 19.1074C29.3216 17.5446 27.202 16.6667 24.9919 16.6667Z" fill="white"/>
</svg>
