<svg width="250" height="154" viewBox="0 0 250 154" fill="none" xmlns="http://www.w3.org/2000/svg">
<path d="M135.333 26.8923C125.105 14.9461 111.466 6.42293 96.2521 2.46996C81.0383 -1.48301 64.9799 -0.676083 50.238 4.78214C35.4962 10.2404 22.7786 20.0879 13.7968 32.9994C4.81493 45.9109 0 61.2667 0 77C0 92.7333 4.81493 108.089 13.7968 121.001C22.7786 133.912 35.4962 143.76 50.238 149.218C64.9799 154.676 81.0383 155.483 96.2521 151.53C111.466 147.577 125.105 139.054 135.333 127.108L86.5437 77L135.333 26.8923ZM96.1593 18.1335C97.5686 18.1335 98.964 18.4113 100.266 18.9512C101.568 19.491 102.751 20.2822 103.747 21.2796C104.744 22.2771 105.534 23.4612 106.074 24.7644C106.613 26.0676 106.89 27.4644 106.89 28.875C106.89 30.2856 106.613 31.6824 106.074 32.9856C105.534 34.2888 104.744 35.473 103.747 36.4704C102.751 37.4678 101.568 38.2591 100.266 38.7989C98.964 39.3387 97.5686 39.6165 96.1593 39.6165C93.3133 39.6165 90.5838 38.4848 88.5714 36.4704C86.5589 34.456 85.4283 31.7238 85.4283 28.875C85.4283 26.0262 86.5589 23.294 88.5714 21.2796C90.5838 19.2652 93.3133 18.1335 96.1593 18.1335Z" fill="#7900FF"/>
<ellipse cx="172.083" cy="77" rx="15.75" ry="15.1667" fill="#F1CE52"/>
<ellipse cx="233.917" cy="77" rx="15.75" ry="15.1667" fill="#F1CE52"/>
</svg>
