<svg width="154" height="154" viewBox="0 0 154 154" fill="none" xmlns="http://www.w3.org/2000/svg">
<path d="M39.7836 15.6566L116.142 92.015L129.745 78.4116L138.793 87.4591L122.944 103.308L143.349 123.713C145.851 126.216 145.851 130.258 143.349 132.761L138.793 137.317C138.199 137.911 137.494 138.383 136.718 138.705C135.941 139.027 135.109 139.193 134.269 139.193C133.429 139.193 132.596 139.027 131.82 138.705C131.044 138.383 130.339 137.911 129.745 137.317L109.084 116.976L93.4269 132.825L84.3794 123.777L97.9827 110.174L21.6244 33.8158V15.6566H39.7836ZM101.961 64.1666L132.376 33.7516V15.6566H114.217L83.8019 46.0716L101.961 64.1666ZM70.1986 96.2499L52.0394 77.8341L37.8586 92.015L24.2552 78.4116L15.2077 87.4591L31.0569 103.308L10.6519 123.777C10.0571 124.371 9.58513 125.076 9.26313 125.852C8.94113 126.629 8.77539 127.461 8.77539 128.301C8.77539 129.142 8.94113 129.974 9.26313 130.75C9.58513 131.526 10.0571 132.231 10.6519 132.825L15.2077 137.381C17.7102 139.883 21.7527 139.883 24.2552 137.381L44.9169 116.976L60.5736 132.825L69.6211 123.777L56.0177 110.174L70.1986 96.2499Z" fill="#7900FF"/>
</svg>
