<svg width="151" height="154" viewBox="0 0 151 154" fill="none" xmlns="http://www.w3.org/2000/svg">
<path d="M75.3439 12.8334C40.7233 12.8334 12.5571 41.6185 12.5571 77C12.5571 112.382 40.7233 141.167 75.3439 141.167C109.964 141.167 138.131 112.382 138.131 77C138.131 41.6185 109.964 12.8334 75.3439 12.8334ZM75.3439 128.333C47.6486 128.333 25.1145 105.304 25.1145 77C25.1145 48.6961 47.6486 25.6667 75.3439 25.6667C103.039 25.6667 125.573 48.6961 125.573 77C125.573 105.304 103.039 128.333 75.3439 128.333Z" fill="#7900FF"/>
<path d="M81.6228 44.9166H69.0654V83.4166H106.737V70.5833H81.6228V44.9166Z" fill="#7900FF"/>
</svg>
